<svg width="264" height="46" viewBox="0 0 264 46" fill="none" xmlns="http://www.w3.org/2000/svg">
<g clip-path="url(#clip0_14_2)">
<path fill-rule="evenodd" clip-rule="evenodd" d="M44.28 20.0901L25.27 1.07006C23.84 -0.359941 21.52 -0.359941 20.09 1.07006C15.44 5.72006 5.72 15.4401 1.07 20.0901C-0.360002 21.5201 -0.360002 23.8401 1.07 25.2701C5.72 29.9201 15.43 39.6301 20.08 44.2801C21.51 45.7101 23.83 45.7101 25.26 44.2801L31.44 38.1001L25.96 32.6201L22.67 35.9101L9.44 22.6801L22.67 9.45006L35.9 22.6801L32.35 26.2301L37.83 31.7101L44.27 25.2701C45.7 23.8401 45.7 21.5201 44.27 20.0901H44.28Z" fill="white"/>
<path fill-rule="evenodd" clip-rule="evenodd" d="M27.9 22.6801L41.13 35.9101L54.36 22.6801L41.13 9.45007L37.84 12.7401L32.36 7.26007L38.54 1.08007C39.97 -0.349932 42.29 -0.349932 43.72 1.08007C48.37 5.73007 58.09 15.4401 62.73 20.0901C64.16 21.5201 64.16 23.8401 62.73 25.2701C58.08 29.9201 48.37 39.6301 43.72 44.2801C42.29 45.7101 39.97 45.7101 38.54 44.2801L19.53 25.2701C18.1 23.8401 18.1 21.5201 19.53 20.0901L25.97 13.6501L31.45 19.1301L27.9 22.6801Z" fill="white"/>
<path d="M99.06 38.0999C97.1 38.4999 95.28 38.8599 93.32 38.8599C85.27 38.8599 84.95 35.7799 84.95 28.5999C84.95 20.9999 85.76 18.7899 93.25 18.7899C95.21 18.7899 97.12 19.1499 99.07 19.5299L99.72 13.6599C97.49 12.9799 94.77 12.4399 91.13 12.4399C79.34 12.4399 76.87 18.1099 76.87 28.6099C76.87 37.1999 78.53 45.3699 89.27 45.3699C93.54 45.3699 96.98 44.8499 99.77 44.1499L99.07 38.1199L99.06 38.0999Z" fill="white"/>
<path d="M120.15 38.9099C115.11 38.9099 113.81 36.9299 113.81 28.8799C113.81 20.8299 115.11 18.8499 120.15 18.8499C125.19 18.8499 126.54 21.1199 126.54 28.8799C126.54 36.6399 125.21 38.9099 120.15 38.9099ZM120.15 45.3499C130.72 45.3499 134.53 40.7199 134.53 28.8799C134.53 17.0399 130.71 12.4299 120.15 12.4299C109.59 12.4299 105.78 16.9299 105.78 28.8799C105.78 40.8299 109.6 45.3499 120.15 45.3499Z" fill="white"/>
<path d="M163.94 38.0999C161.98 38.4999 160.16 38.8599 158.2 38.8599C150.15 38.8599 149.83 35.7799 149.83 28.5999C149.83 20.9999 150.64 18.7899 158.13 18.7899C160.09 18.7899 162 19.1499 163.94 19.5299L164.59 13.6599C162.36 12.9799 159.64 12.4399 156 12.4399C144.21 12.4399 141.74 18.1099 141.74 28.6099C141.74 37.1999 143.4 45.3699 154.14 45.3699C158.41 45.3699 161.85 44.8499 164.64 44.1499L163.94 38.1199V38.0999Z" fill="white"/>
<path d="M180.08 44.9199V24.1699C180.08 22.7299 180.13 21.1599 180.28 19.8699C181.54 19.2199 183.74 18.8799 185.61 18.8799C186.42 18.8799 187.25 18.9199 187.91 19.0099L188.56 12.5999C187.53 12.4899 186.47 12.4399 185.3 12.4399C180.96 12.4399 176.01 13.2999 172.41 15.4099C172.21 17.4599 172.14 19.3199 172.14 21.4999V44.9399H180.08V44.9199Z" fill="white"/>
<path d="M195.34 44.92H203.39V12.86H195.34V44.92ZM199.35 9.08004C202.95 9.08004 204.07 7.89004 204.07 4.56004C204.07 1.23004 202.92 0.0400391 199.35 0.0400391C195.78 0.0400391 194.63 1.23004 194.63 4.56004C194.63 7.89004 195.73 9.08004 199.35 9.08004Z" fill="white"/>
<path d="M230.49 34.1199C230.49 35.5599 230.44 37.1299 230.29 38.4199C228.56 39.1599 226.42 39.2799 224.64 39.2799C221.15 39.2799 219.2 38.3999 219.2 35.0099C219.2 31.6199 220.28 30.7299 223.09 30.0599C225.32 29.5399 228.09 29.4699 230.49 29.3399V34.1099V34.1199ZM223.7 45.3499C229.5 45.3499 234.32 44.5399 238.03 42.3799C238.21 40.3299 238.3 38.4699 238.3 36.2999V22.7399C238.3 14.4199 232.36 12.4199 225.21 12.4199C220.49 12.4199 215.99 13.0699 212.63 13.6399L213.28 19.5799C216.52 19.1699 220.73 18.7499 224.6 18.7499C228.78 18.7499 230.49 20.4199 230.49 24.1099C226.96 24.2499 223.58 24.3799 220.23 24.9199C213.84 25.9299 211.36 29.4399 211.36 35.1099C211.36 41.8999 214.85 45.3399 223.71 45.3399L223.7 45.3499Z" fill="white"/>
<path d="M255.33 44.9199V24.1699C255.33 22.7299 255.38 21.1599 255.53 19.8699C256.79 19.2199 258.99 18.8799 260.86 18.8799C261.67 18.8799 262.5 18.9199 263.17 19.0099L263.82 12.5999C262.79 12.4899 261.73 12.4399 260.56 12.4399C256.22 12.4399 251.27 13.2999 247.67 15.4099C247.47 17.4599 247.4 19.3199 247.4 21.4999V44.9399H255.34L255.33 44.9199Z" fill="white"/>
</g>
<defs>
<clipPath id="clip0_14_2">
<rect width="263.81" height="45.35" fill="white"/>
</clipPath>
</defs>
</svg>
