<svg width="527" height="94" viewBox="0 0 527 94" fill="none" xmlns="http://www.w3.org/2000/svg">
<path d="M409.78 46.5299C408.28 45.7299 406.03 44.7299 402.51 43.2799L397.22 41.0699C394.15 39.7399 392.6 37.6899 392.6 34.9599C392.6 31.3399 395.64 28.8099 400 28.8099C404.36 28.8099 408.25 30.6399 411.37 34.2499L416.89 28.3899C413.04 23.4299 407.53 20.9099 400.48 20.9099C395.34 20.9099 391.1 22.2999 387.9 25.0299C384.82 27.7399 383.26 31.2099 383.26 35.3499C383.26 40.8399 385.88 44.8899 391.28 47.7299C392.48 48.4299 394.94 49.4899 397.78 50.6899C401.28 52.0299 403.23 52.8399 404.08 53.3099C407.17 54.7999 408.75 56.9499 408.75 59.6899C408.75 63.6299 404.87 66.6099 399.72 66.6099C394.57 66.6099 389.49 63.6999 386.35 58.9699L380.22 64.4899C384.26 70.9499 391.44 74.7999 399.52 74.7999C405.11 74.7999 409.7 73.2899 413.16 70.2999C416.63 67.2999 418.38 63.5699 418.38 59.2099C418.38 53.7199 415.57 49.5799 409.78 46.5499V46.5299Z" fill="white"/>
<path d="M447.6 21.28C439.85 21.28 433.33 23.92 428.22 29.12C423.13 34.4 420.66 40.58 420.66 48.03C420.66 55.48 423.2 61.93 428.22 67.13C433.33 72.34 439.67 74.87 447.6 74.87C455.53 74.87 461.93 72.26 466.88 67.13C472.03 61.88 474.54 55.63 474.54 48.03C474.54 40.43 472.04 34.37 466.88 29.12C461.87 23.92 455.38 21.28 447.59 21.28H447.6ZM459.77 60.67C456.49 64.15 452.39 65.91 447.6 65.91C442.81 65.91 438.71 64.15 435.34 60.67C432.06 57.19 430.4 52.94 430.4 48.03C430.4 43.12 432.06 38.96 435.34 35.49C438.69 31.95 442.81 30.15 447.61 30.15C452.41 30.15 456.54 31.95 459.79 35.5C463.12 38.93 464.82 43.15 464.82 48.04C464.82 52.93 463.13 57.24 459.78 60.68L459.77 60.67Z" fill="white"/>
<path d="M493.11 19.37C493.11 13.9 495.77 10.28 500.61 9.14004V0.0400391C489.87 0.930039 483.47 8.05004 483.47 19.18V22.63H474.81V30.73H483.47V73.53H493.11V30.73H500.7V22.63H493.11V19.37Z" fill="white"/>
<path d="M526.84 30.73V22.63H518.36V0H509.26V61.56C510.92 70.33 516.3 74.78 525.27 74.78C525.79 74.78 526.31 74.77 526.83 74.74V66.01H526.81C521.2 66.01 518.36 62.52 518.36 55.63V30.73H526.84Z" fill="white"/>
<path d="M31.34 20.6299C24.24 20.6299 18.53 22.8999 14.68 27.5299V20.7699L0 27.7599V93.5599H15.37V68.8199C19.31 73.1599 24.73 75.2299 31.34 75.2299C46.22 75.2299 57.75 64.5899 57.75 47.9299C57.75 31.2699 46.22 20.6299 31.34 20.6299ZM28.68 62.6199C20.99 62.6199 15.18 57.0999 15.18 47.9299C15.18 38.7599 21 33.2499 28.68 33.2499C36.36 33.2499 42.18 38.7699 42.18 47.9299C42.18 57.0899 36.37 62.6199 28.68 62.6199Z" fill="white"/>
<path d="M78.71 28.42V20.54L64.03 27.54V75.24H79.41V49.42C79.41 39.27 85.03 34.64 93.5 34.64C94.68 34.64 95.67 34.74 96.95 34.84V20.65C88.77 20.65 82.46 23.31 78.72 28.44L78.71 28.42Z" fill="white"/>
<path d="M129.43 20.6299C113.27 20.6299 101.14 32.0599 101.14 47.9299C101.14 63.7999 113.07 75.2299 131.4 75.2299C140.96 75.2299 148.35 72.2699 153.28 66.6599L145.1 57.7899C141.45 61.2399 137.41 62.9099 131.79 62.9099C123.71 62.9099 118.09 58.8699 116.61 52.2699H156.72C156.82 50.9899 157.02 49.3099 157.02 48.1299C157.02 31.0799 145 20.6299 129.42 20.6299H129.43ZM116.42 43.2999C117.5 36.4999 122.53 32.2599 129.53 32.2599C136.53 32.2599 141.46 36.5999 142.54 43.2999H116.42Z" fill="white"/>
<path d="M231.2 20.6299C223.22 20.6299 216.32 23.8799 212.08 29.2999C208.33 23.4899 202.03 20.6299 194.64 20.6299C187.84 20.6299 181.93 22.9999 177.98 27.5299V20.6699H177.93L163.29 27.6399V75.2399H178.66V47.8399C178.66 38.3799 183.49 33.9399 190.29 33.9399C196.7 33.9399 200.34 37.8799 200.34 46.4599V75.2399H215.71V47.8399C215.71 38.3799 220.54 33.9399 227.44 33.9399C233.65 33.9399 237.49 37.8799 237.49 46.4599V75.2399H252.87V44.0999C252.87 27.9399 243.8 20.6399 231.19 20.6399L231.2 20.6299Z" fill="white"/>
<path d="M259.37 75.23H274.74V20.5L259.37 27.82V75.23Z" fill="white"/>
<path d="M309.39 20.6299C293.23 20.6299 281.1 32.0599 281.1 47.9299C281.1 63.7999 293.03 75.2299 311.36 75.2299C320.92 75.2299 328.31 72.2699 333.24 66.6599L325.06 57.7899C321.41 61.2399 317.37 62.9099 311.75 62.9099C303.67 62.9099 298.05 58.8699 296.57 52.2699H336.68C336.78 50.9899 336.98 49.3099 336.98 48.1299C336.98 31.0799 324.96 20.6299 309.38 20.6299H309.39ZM296.38 43.2999C297.46 36.4999 302.49 32.2599 309.49 32.2599C316.49 32.2599 321.42 36.5999 322.5 43.2999H296.38Z" fill="white"/>
<path d="M357.94 28.4199V20.6799L343.26 27.6699V75.2399H358.64V49.4199C358.64 39.2699 364.26 34.6399 372.73 34.6399C373.91 34.6399 375.29 34.7399 376.57 34.8399V20.6499C368.39 20.6499 361.69 23.3099 357.94 28.4399V28.4199Z" fill="white"/>
</svg>
