<svg width="1920" height="395" viewBox="0 0 1920 395" fill="none" xmlns="http://www.w3.org/2000/svg">
<path d="M485 -68V20C485 35 486.2 64 531 64H960" stroke="white" stroke-width="2"/>
<path d="M1435 -68V20C1435 35 1433.8 64 1389 64H960" stroke="white" stroke-width="2"/>
<path d="M1330 -128V81C1330 96 1331.2 125 1376 125H1805" stroke="white" stroke-width="2"/>
<path d="M2280 -7V81C2280 96 2278.8 125 2234 125H1805" stroke="white" stroke-width="2"/>
<path d="M556 -97V112C556 127 554.8 156 510 156H81" stroke="white" stroke-width="2"/>
<path d="M-394 24V112C-394 127 -392.8 156 -348 156H81" stroke="white" stroke-width="2"/>
<path d="M127 -40V395M196 253H-100" stroke="white" stroke-width="2"/>
</svg>
